<svg xmlns="http://www.w3.org/2000/svg" width="21" height="23" viewBox="0 0 21 23" fill="none">
    <path d="M20.3559 8.11585C20.2467 8.17712 17.6487 9.47035 17.6487 12.3377C17.7711 15.6078 20.9273 16.7546 20.9814 16.7546C20.9273 16.8159 20.505 18.3168 19.2538 19.8902C18.2609 21.2455 17.1589 22.6119 15.4854 22.6119C13.8936 22.6119 13.3222 21.7087 11.4854 21.7087C9.51292 21.7087 8.9548 22.6119 7.44459 22.6119C5.77111 22.6119 4.58744 21.1723 3.54041 19.8297C2.18015 18.0725 1.02399 15.3149 0.983169 12.6672C0.955662 11.2642 1.25557 9.88498 2.01689 8.71352C3.09143 7.07808 5.0098 5.96789 7.10475 5.93128C8.7099 5.88274 10.1385 6.91971 11.1181 6.91971C12.0568 6.91971 13.8119 5.93128 15.7978 5.93128C16.6549 5.93208 18.9406 6.16367 20.3559 8.11585ZM10.9823 5.65115C10.6966 4.36986 11.4854 3.08857 12.2201 2.27125C13.1589 1.28283 14.6416 0.611938 15.9202 0.611938C16.0018 1.89323 15.4845 3.14985 14.56 4.06506C13.7303 5.05348 12.3017 5.79759 10.9823 5.65115Z" fill="#1A202C"/>
</svg>