<svg xmlns="http://www.w3.org/2000/svg" width="23" height="23" viewBox="0 0 23 23" fill="none">
    <path d="M21.6073 11.8257C21.6073 11.0343 21.5417 10.4568 21.3999 9.85794H12.1787V13.4298H17.5914C17.4823 14.3175 16.893 15.6543 15.5834 16.5526L15.5651 16.6722L18.4807 18.8857L18.6827 18.9054C20.5378 17.2264 21.6073 14.756 21.6073 11.8257Z" fill="#4285F4"/>
    <path d="M12.1781 21.2369C14.8298 21.2369 17.056 20.3813 18.682 18.9055L15.5828 16.5527C14.7535 17.1195 13.6404 17.5152 12.1781 17.5152C9.5809 17.5152 7.37656 15.8362 6.59078 13.5155L6.4756 13.5251L3.44394 15.8244L3.4043 15.9324C5.01935 19.0766 8.33681 21.2369 12.1781 21.2369Z" fill="#34A853"/>
    <path d="M6.5915 13.5155C6.38417 12.9167 6.26417 12.2749 6.26417 11.6119C6.26417 10.9488 6.38417 10.3072 6.58059 9.7083L6.5751 9.58075L3.50545 7.24451L3.40501 7.29132C2.73937 8.59606 2.35742 10.0612 2.35742 11.6119C2.35742 13.1626 2.73937 14.6277 3.40501 15.9324L6.5915 13.5155Z" fill="#FBBC05"/>
    <path d="M12.1781 5.70858C14.0224 5.70858 15.2664 6.48927 15.9757 7.14168L18.7476 4.48944C17.0452 2.93875 14.8299 1.98694 12.1781 1.98694C8.33684 1.98694 5.01936 4.1472 3.4043 7.29134L6.57989 9.70832C7.37658 7.38763 9.58094 5.70858 12.1781 5.70858Z" fill="#EB4335"/>
</svg>