<svg width="639" height="977" viewBox="0 0 639 977" fill="none"
    xmlns="http://www.w3.org/2000/svg">
    <rect y="0.611938" width="639" height="976" fill="#194BFB"/>
    <path d="M113.784 753.212C111.971 753.212 110.244 752.892 108.604 752.252C106.964 751.599 105.511 750.639 104.244 749.372C102.991 748.105 101.998 746.539 101.264 744.672C100.544 742.805 100.184 740.652 100.184 738.212C100.184 735.025 100.791 732.319 102.004 730.092C103.231 727.852 104.871 726.145 106.924 724.972C108.991 723.799 111.278 723.212 113.784 723.212C117.491 723.212 120.404 724.072 122.524 725.792C124.644 727.512 126.064 729.945 126.784 733.092L121.224 733.892C120.704 732.212 119.851 730.872 118.664 729.872C117.491 728.859 115.984 728.345 114.144 728.332C112.318 728.305 110.798 728.699 109.584 729.512C108.371 730.325 107.458 731.479 106.844 732.972C106.244 734.465 105.944 736.212 105.944 738.212C105.944 740.212 106.244 741.945 106.844 743.412C107.458 744.879 108.371 746.019 109.584 746.832C110.798 747.645 112.318 748.065 114.144 748.092C115.384 748.119 116.504 747.905 117.504 747.452C118.518 746.999 119.371 746.285 120.064 745.312C120.758 744.339 121.251 743.092 121.544 741.572H116.984V737.372H127.344C127.371 737.545 127.391 737.852 127.404 738.292C127.418 738.732 127.424 738.985 127.424 739.052C127.424 741.812 126.864 744.259 125.744 746.392C124.624 748.525 123.044 750.199 121.004 751.412C118.964 752.612 116.558 753.212 113.784 753.212ZM141.473 753.212C139.259 753.212 137.306 752.739 135.613 751.792C133.933 750.832 132.613 749.519 131.653 747.852C130.706 746.172 130.233 744.252 130.233 742.092C130.233 739.732 130.699 737.679 131.633 735.932C132.566 734.185 133.853 732.832 135.493 731.872C137.133 730.899 139.019 730.412 141.153 730.412C143.419 730.412 145.346 730.945 146.933 732.012C148.519 733.079 149.693 734.579 150.453 736.512C151.213 738.445 151.479 740.719 151.253 743.332H145.873V741.332C145.873 739.132 145.519 737.552 144.813 736.592C144.119 735.619 142.979 735.132 141.393 735.132C139.539 735.132 138.173 735.699 137.293 736.832C136.426 737.952 135.993 739.612 135.993 741.812C135.993 743.825 136.426 745.385 137.293 746.492C138.173 747.585 139.459 748.132 141.153 748.132C142.219 748.132 143.133 747.899 143.893 747.432C144.653 746.965 145.233 746.292 145.633 745.412L151.073 746.972C150.259 748.945 148.973 750.479 147.213 751.572C145.466 752.665 143.553 753.212 141.473 753.212ZM134.313 743.332V739.292H148.633V743.332H134.313ZM168.729 752.612C167.235 752.892 165.769 753.012 164.329 752.972C162.902 752.945 161.622 752.699 160.489 752.232C159.369 751.752 158.515 750.985 157.929 749.932C157.395 748.945 157.115 747.945 157.089 746.932C157.062 745.905 157.049 744.745 157.049 743.452V725.012H162.489V743.132C162.489 743.972 162.495 744.732 162.509 745.412C162.535 746.079 162.675 746.612 162.929 747.012C163.409 747.772 164.175 748.185 165.229 748.252C166.282 748.319 167.449 748.265 168.729 748.092V752.612ZM153.369 735.212V731.012H168.729V735.212H153.369ZM192.15 753.212C190.003 753.212 188.21 752.712 186.77 751.712C185.33 750.712 184.243 749.352 183.51 747.632C182.79 745.912 182.43 743.972 182.43 741.812C182.43 739.652 182.79 737.712 183.51 735.992C184.23 734.272 185.29 732.912 186.69 731.912C188.09 730.912 189.817 730.412 191.87 730.412C193.937 730.412 195.737 730.905 197.27 731.892C198.803 732.879 199.99 734.232 200.83 735.952C201.683 737.659 202.11 739.612 202.11 741.812C202.11 743.972 201.69 745.912 200.85 747.632C200.023 749.352 198.863 750.712 197.37 751.712C195.877 752.712 194.137 753.212 192.15 753.212ZM181.51 752.612V723.812H186.99V737.812H186.31V752.612H181.51ZM191.27 748.372C192.443 748.372 193.403 748.079 194.15 747.492C194.897 746.905 195.45 746.119 195.81 745.132C196.17 744.132 196.35 743.025 196.35 741.812C196.35 740.612 196.163 739.519 195.79 738.532C195.417 737.532 194.837 736.739 194.05 736.152C193.277 735.552 192.283 735.252 191.07 735.252C189.937 735.252 189.017 735.525 188.31 736.072C187.617 736.619 187.11 737.385 186.79 738.372C186.47 739.359 186.31 740.505 186.31 741.812C186.31 743.119 186.47 744.265 186.79 745.252C187.11 746.239 187.63 747.005 188.35 747.552C189.083 748.099 190.057 748.372 191.27 748.372ZM216.551 753.212C214.338 753.212 212.384 752.739 210.691 751.792C209.011 750.832 207.691 749.519 206.731 747.852C205.784 746.172 205.311 744.252 205.311 742.092C205.311 739.732 205.778 737.679 206.711 735.932C207.644 734.185 208.931 732.832 210.571 731.872C212.211 730.899 214.098 730.412 216.231 730.412C218.498 730.412 220.424 730.945 222.011 732.012C223.598 733.079 224.771 734.579 225.531 736.512C226.291 738.445 226.558 740.719 226.331 743.332H220.951V741.332C220.951 739.132 220.598 737.552 219.891 736.592C219.198 735.619 218.058 735.132 216.471 735.132C214.618 735.132 213.251 735.699 212.371 736.832C211.504 737.952 211.071 739.612 211.071 741.812C211.071 743.825 211.504 745.385 212.371 746.492C213.251 747.585 214.538 748.132 216.231 748.132C217.298 748.132 218.211 747.899 218.971 747.432C219.731 746.965 220.311 746.292 220.711 745.412L226.151 746.972C225.338 748.945 224.051 750.479 222.291 751.572C220.544 752.665 218.631 753.212 216.551 753.212ZM209.391 743.332V739.292H223.711V743.332H209.391ZM243.807 752.612C242.314 752.892 240.847 753.012 239.407 752.972C237.98 752.945 236.7 752.699 235.567 752.232C234.447 751.752 233.594 750.985 233.007 749.932C232.474 748.945 232.194 747.945 232.167 746.932C232.14 745.905 232.127 744.745 232.127 743.452V725.012H237.567V743.132C237.567 743.972 237.574 744.732 237.587 745.412C237.614 746.079 237.754 746.612 238.007 747.012C238.487 747.772 239.254 748.185 240.307 748.252C241.36 748.319 242.527 748.265 243.807 748.092V752.612ZM228.447 735.212V731.012H243.807V735.212H228.447ZM259.167 752.612C257.674 752.892 256.207 753.012 254.767 752.972C253.34 752.945 252.06 752.699 250.927 752.232C249.807 751.752 248.954 750.985 248.367 749.932C247.834 748.945 247.554 747.945 247.527 746.932C247.5 745.905 247.487 744.745 247.487 743.452V725.012H252.927V743.132C252.927 743.972 252.934 744.732 252.947 745.412C252.974 746.079 253.114 746.612 253.367 747.012C253.847 747.772 254.614 748.185 255.667 748.252C256.72 748.319 257.887 748.265 259.167 748.092V752.612ZM243.807 735.212V731.012H259.167V735.212H243.807ZM274.012 753.212C271.799 753.212 269.845 752.739 268.152 751.792C266.472 750.832 265.152 749.519 264.192 747.852C263.245 746.172 262.772 744.252 262.772 742.092C262.772 739.732 263.239 737.679 264.172 735.932C265.105 734.185 266.392 732.832 268.032 731.872C269.672 730.899 271.559 730.412 273.692 730.412C275.959 730.412 277.885 730.945 279.472 732.012C281.059 733.079 282.232 734.579 282.992 736.512C283.752 738.445 284.019 740.719 283.792 743.332H278.412V741.332C278.412 739.132 278.059 737.552 277.352 736.592C276.659 735.619 275.519 735.132 273.932 735.132C272.079 735.132 270.712 735.699 269.832 736.832C268.965 737.952 268.532 739.612 268.532 741.812C268.532 743.825 268.965 745.385 269.832 746.492C270.712 747.585 271.999 748.132 273.692 748.132C274.759 748.132 275.672 747.899 276.432 747.432C277.192 746.965 277.772 746.292 278.172 745.412L283.612 746.972C282.799 748.945 281.512 750.479 279.752 751.572C278.005 752.665 276.092 753.212 274.012 753.212ZM266.852 743.332V739.292H281.172V743.332H266.852ZM288.308 752.612V731.012H293.108V736.292L292.588 735.612C292.868 734.865 293.241 734.185 293.708 733.572C294.174 732.959 294.748 732.452 295.428 732.052C295.948 731.732 296.514 731.485 297.128 731.312C297.741 731.125 298.374 731.012 299.028 730.972C299.681 730.919 300.334 730.932 300.988 731.012V736.092C300.388 735.905 299.688 735.845 298.888 735.912C298.101 735.965 297.388 736.145 296.748 736.452C296.108 736.745 295.568 737.139 295.128 737.632C294.688 738.112 294.354 738.685 294.128 739.352C293.901 740.005 293.788 740.745 293.788 741.572V752.612H288.308ZM317.4 752.612L310.8 730.972L316.12 731.012L320.04 743.892L324.02 731.012H328.54L332.52 743.892L336.44 731.012H341.76L335.16 752.612H331L326.28 738.532L321.56 752.612H317.4ZM345.778 728.012V723.212H351.218V728.012H345.778ZM345.778 752.612V731.012H351.218V752.612H345.778ZM370.174 752.612C368.681 752.892 367.214 753.012 365.774 752.972C364.347 752.945 363.067 752.699 361.934 752.232C360.814 751.752 359.961 750.985 359.374 749.932C358.841 748.945 358.561 747.945 358.534 746.932C358.507 745.905 358.494 744.745 358.494 743.452V725.012H363.934V743.132C363.934 743.972 363.941 744.732 363.954 745.412C363.981 746.079 364.121 746.612 364.374 747.012C364.854 747.772 365.621 748.185 366.674 748.252C367.727 748.319 368.894 748.265 370.174 748.092V752.612ZM354.814 735.212V731.012H370.174V735.212H354.814ZM389.708 752.612V742.412C389.708 741.919 389.681 741.292 389.628 740.532C389.574 739.759 389.408 738.985 389.128 738.212C388.848 737.439 388.388 736.792 387.748 736.272C387.121 735.752 386.228 735.492 385.068 735.492C384.601 735.492 384.101 735.565 383.568 735.712C383.034 735.859 382.534 736.145 382.068 736.572C381.601 736.985 381.214 737.599 380.908 738.412C380.614 739.225 380.468 740.305 380.468 741.652L377.348 740.172C377.348 738.465 377.694 736.865 378.388 735.372C379.081 733.879 380.121 732.672 381.508 731.752C382.908 730.832 384.668 730.372 386.788 730.372C388.481 730.372 389.861 730.659 390.928 731.232C391.994 731.805 392.821 732.532 393.408 733.412C394.008 734.292 394.434 735.212 394.688 736.172C394.941 737.119 395.094 737.985 395.148 738.772C395.201 739.559 395.228 740.132 395.228 740.492V752.612H389.708ZM374.948 752.612V723.812H379.788V738.612H380.468V752.612H374.948ZM419.305 753.212C417.172 753.212 415.245 752.839 413.525 752.092C411.818 751.332 410.412 750.252 409.305 748.852C408.212 747.439 407.518 745.759 407.225 743.812L412.905 742.972C413.305 744.625 414.132 745.899 415.385 746.792C416.638 747.685 418.065 748.132 419.665 748.132C420.558 748.132 421.425 747.992 422.265 747.712C423.105 747.432 423.792 747.019 424.325 746.472C424.872 745.925 425.145 745.252 425.145 744.452C425.145 744.159 425.098 743.879 425.005 743.612C424.925 743.332 424.785 743.072 424.585 742.832C424.385 742.592 424.098 742.365 423.725 742.152C423.365 741.939 422.905 741.745 422.345 741.572L414.865 739.372C414.305 739.212 413.652 738.985 412.905 738.692C412.172 738.399 411.458 737.979 410.765 737.432C410.072 736.885 409.492 736.165 409.025 735.272C408.572 734.365 408.345 733.225 408.345 731.852C408.345 729.919 408.832 728.312 409.805 727.032C410.778 725.752 412.078 724.799 413.705 724.172C415.332 723.545 417.132 723.239 419.105 723.252C421.092 723.279 422.865 723.619 424.425 724.272C425.985 724.925 427.292 725.879 428.345 727.132C429.398 728.372 430.158 729.892 430.625 731.692L424.745 732.692C424.532 731.759 424.138 730.972 423.565 730.332C422.992 729.692 422.305 729.205 421.505 728.872C420.718 728.539 419.892 728.359 419.025 728.332C418.172 728.305 417.365 728.425 416.605 728.692C415.858 728.945 415.245 729.319 414.765 729.812C414.298 730.305 414.065 730.892 414.065 731.572C414.065 732.199 414.258 732.712 414.645 733.112C415.032 733.499 415.518 733.812 416.105 734.052C416.692 734.292 417.292 734.492 417.905 734.652L422.905 736.012C423.652 736.212 424.478 736.479 425.385 736.812C426.292 737.132 427.158 737.585 427.985 738.172C428.825 738.745 429.512 739.505 430.045 740.452C430.592 741.399 430.865 742.599 430.865 744.052C430.865 745.599 430.538 746.952 429.885 748.112C429.245 749.259 428.378 750.212 427.285 750.972C426.192 751.719 424.952 752.279 423.565 752.652C422.192 753.025 420.772 753.212 419.305 753.212ZM448.221 752.612C446.728 752.892 445.261 753.012 443.821 752.972C442.394 752.945 441.114 752.699 439.981 752.232C438.861 751.752 438.008 750.985 437.421 749.932C436.888 748.945 436.608 747.945 436.581 746.932C436.554 745.905 436.541 744.745 436.541 743.452V725.012H441.981V743.132C441.981 743.972 441.988 744.732 442.001 745.412C442.028 746.079 442.168 746.612 442.421 747.012C442.901 747.772 443.668 748.185 444.721 748.252C445.774 748.319 446.941 748.265 448.221 748.092V752.612ZM432.861 735.212V731.012H448.221V735.212H432.861ZM461.583 753.212C459.409 753.212 457.503 752.725 455.863 751.752C454.223 750.779 452.943 749.439 452.023 747.732C451.116 746.012 450.663 744.039 450.663 741.812C450.663 739.559 451.129 737.579 452.063 735.872C452.996 734.152 454.283 732.812 455.923 731.852C457.563 730.892 459.449 730.412 461.583 730.412C463.756 730.412 465.663 730.899 467.303 731.872C468.956 732.845 470.243 734.192 471.163 735.912C472.083 737.619 472.543 739.585 472.543 741.812C472.543 744.052 472.076 746.032 471.143 747.752C470.223 749.459 468.936 750.799 467.283 751.772C465.643 752.732 463.743 753.212 461.583 753.212ZM461.583 748.132C463.329 748.132 464.629 747.545 465.483 746.372C466.349 745.185 466.783 743.665 466.783 741.812C466.783 739.892 466.343 738.359 465.463 737.212C464.596 736.065 463.303 735.492 461.583 735.492C460.396 735.492 459.423 735.759 458.663 736.292C457.903 736.825 457.336 737.565 456.963 738.512C456.603 739.459 456.423 740.559 456.423 741.812C456.423 743.745 456.856 745.285 457.723 746.432C458.603 747.565 459.889 748.132 461.583 748.132ZM486.461 753.212C484.221 753.212 482.301 752.712 480.701 751.712C479.101 750.712 477.874 749.352 477.021 747.632C476.167 745.912 475.741 743.972 475.741 741.812C475.741 739.625 476.181 737.672 477.061 735.952C477.954 734.232 479.207 732.879 480.821 731.892C482.434 730.905 484.341 730.412 486.541 730.412C489.087 730.412 491.221 731.059 492.941 732.352C494.674 733.632 495.781 735.385 496.261 737.612L490.821 739.052C490.501 737.932 489.941 737.059 489.141 736.432C488.354 735.805 487.461 735.492 486.461 735.492C485.314 735.492 484.374 735.772 483.641 736.332C482.907 736.879 482.367 737.632 482.021 738.592C481.674 739.539 481.501 740.612 481.501 741.812C481.501 743.692 481.914 745.219 482.741 746.392C483.581 747.552 484.821 748.132 486.461 748.132C487.687 748.132 488.621 747.852 489.261 747.292C489.901 746.732 490.381 745.932 490.701 744.892L496.261 746.052C495.647 748.345 494.487 750.112 492.781 751.352C491.074 752.592 488.967 753.212 486.461 753.212ZM500.221 752.612L500.261 723.812H505.781V741.412L513.101 731.012H519.821L512.021 741.812L520.341 752.612H513.261L505.781 742.212V752.612H500.221ZM530.381 753.212C527.661 753.212 525.461 752.599 523.781 751.372C522.114 750.132 521.101 748.385 520.741 746.132L526.301 745.292C526.527 746.305 527.027 747.099 527.801 747.672C528.587 748.245 529.581 748.532 530.781 748.532C531.767 748.532 532.527 748.345 533.061 747.972C533.594 747.585 533.861 747.052 533.861 746.372C533.861 745.945 533.754 745.605 533.541 745.352C533.327 745.085 532.847 744.825 532.101 744.572C531.367 744.319 530.221 743.985 528.661 743.572C526.901 743.119 525.494 742.612 524.441 742.052C523.387 741.492 522.627 740.825 522.161 740.052C521.694 739.265 521.461 738.319 521.461 737.212C521.461 735.825 521.814 734.625 522.521 733.612C523.227 732.585 524.221 731.799 525.501 731.252C526.794 730.692 528.314 730.412 530.061 730.412C531.754 730.412 533.254 730.672 534.561 731.192C535.867 731.712 536.921 732.452 537.721 733.412C538.534 734.372 539.034 735.505 539.221 736.812L533.661 737.812C533.567 737.012 533.221 736.379 532.621 735.912C532.021 735.445 531.207 735.172 530.181 735.092C529.181 735.025 528.374 735.159 527.761 735.492C527.161 735.825 526.861 736.305 526.861 736.932C526.861 737.305 526.987 737.619 527.241 737.872C527.507 738.125 528.047 738.385 528.861 738.652C529.687 738.919 530.941 739.265 532.621 739.692C534.261 740.119 535.574 740.619 536.561 741.192C537.561 741.752 538.287 742.432 538.741 743.232C539.194 744.019 539.421 744.972 539.421 746.092C539.421 748.305 538.621 750.045 537.021 751.312C535.421 752.579 533.207 753.212 530.381 753.212Z" fill="white"/>
    <path opacity="0.7" d="M255.39 795.822C254.699 795.822 254.069 795.701 253.5 795.458C252.93 795.215 252.44 794.868 252.03 794.415C251.619 793.958 251.302 793.407 251.078 792.763C250.858 792.114 250.749 791.384 250.749 790.572C250.749 789.499 250.94 788.57 251.323 787.786C251.705 787.002 252.244 786.398 252.94 785.973C253.635 785.544 254.452 785.329 255.39 785.329C256.519 785.329 257.429 785.593 258.12 786.12C258.81 786.643 259.286 787.359 259.548 788.269L258.288 788.528C258.078 787.917 257.732 787.429 257.252 787.065C256.771 786.701 256.171 786.519 255.453 786.519C254.701 786.514 254.076 786.682 253.577 787.023C253.082 787.359 252.709 787.833 252.457 788.444C252.205 789.055 252.076 789.765 252.072 790.572C252.067 791.375 252.191 792.079 252.443 792.686C252.695 793.293 253.07 793.769 253.57 794.114C254.074 794.455 254.701 794.627 255.453 794.632C256.101 794.637 256.647 794.513 257.091 794.261C257.534 794.009 257.877 793.645 258.12 793.169C258.362 792.693 258.509 792.121 258.561 791.454H256.419V790.425H259.877C259.891 790.518 259.898 790.63 259.898 790.761C259.902 790.887 259.905 790.973 259.905 791.02C259.905 791.939 259.732 792.763 259.387 793.491C259.046 794.214 258.54 794.784 257.868 795.199C257.2 795.614 256.374 795.822 255.39 795.822ZM261.643 795.612V785.322H262.889V795.612H261.643ZM268.409 795.822C267.658 795.822 267.009 795.652 266.463 795.311C265.922 794.97 265.504 794.499 265.21 793.897C264.916 793.295 264.769 792.604 264.769 791.825C264.769 791.032 264.918 790.336 265.217 789.739C265.516 789.142 265.938 788.677 266.484 788.346C267.03 788.01 267.672 787.842 268.409 787.842C269.165 787.842 269.816 788.012 270.362 788.353C270.908 788.689 271.326 789.158 271.615 789.76C271.909 790.357 272.056 791.046 272.056 791.825C272.056 792.614 271.909 793.309 271.615 793.911C271.321 794.508 270.901 794.977 270.355 795.318C269.809 795.654 269.16 795.822 268.409 795.822ZM268.409 794.639C269.193 794.639 269.776 794.378 270.159 793.855C270.542 793.332 270.733 792.656 270.733 791.825C270.733 790.971 270.539 790.292 270.152 789.788C269.765 789.279 269.184 789.025 268.409 789.025C267.882 789.025 267.448 789.144 267.107 789.382C266.766 789.62 266.512 789.949 266.344 790.369C266.176 790.789 266.092 791.274 266.092 791.825C266.092 792.674 266.288 793.356 266.68 793.869C267.072 794.382 267.648 794.639 268.409 794.639ZM277.269 795.822C276.56 795.822 275.963 795.647 275.477 795.297C274.992 794.942 274.623 794.464 274.371 793.862C274.124 793.255 274 792.576 274 791.825C274 791.064 274.124 790.383 274.371 789.781C274.623 789.179 274.992 788.705 275.477 788.36C275.967 788.015 276.567 787.842 277.276 787.842C277.976 787.842 278.578 788.017 279.082 788.367C279.591 788.712 279.981 789.186 280.251 789.788C280.522 790.39 280.657 791.069 280.657 791.825C280.657 792.581 280.522 793.26 280.251 793.862C279.981 794.464 279.591 794.942 279.082 795.297C278.578 795.647 277.974 795.822 277.269 795.822ZM273.79 795.612V785.532H275.043V790.047H274.903V795.612H273.79ZM277.115 794.681C277.615 794.681 278.028 794.555 278.354 794.303C278.681 794.051 278.926 793.71 279.089 793.281C279.253 792.847 279.334 792.362 279.334 791.825C279.334 791.293 279.253 790.812 279.089 790.383C278.931 789.954 278.683 789.613 278.347 789.361C278.016 789.109 277.594 788.983 277.08 788.983C276.59 788.983 276.184 789.104 275.862 789.347C275.54 789.585 275.3 789.919 275.141 790.348C274.983 790.773 274.903 791.265 274.903 791.825C274.903 792.376 274.98 792.868 275.134 793.302C275.293 793.731 275.536 794.07 275.862 794.317C276.189 794.56 276.607 794.681 277.115 794.681ZM284.541 795.822C283.976 795.822 283.502 795.719 283.12 795.514C282.742 795.304 282.455 795.029 282.259 794.688C282.067 794.347 281.972 793.974 281.972 793.568C281.972 793.171 282.046 792.828 282.196 792.539C282.35 792.245 282.564 792.002 282.84 791.811C283.115 791.615 283.444 791.461 283.827 791.349C284.186 791.251 284.587 791.167 285.031 791.097C285.479 791.022 285.931 790.955 286.389 790.894C286.846 790.833 287.273 790.775 287.67 790.719L287.222 790.978C287.236 790.306 287.1 789.809 286.816 789.487C286.536 789.165 286.05 789.004 285.36 789.004C284.902 789.004 284.501 789.109 284.156 789.319C283.815 789.524 283.575 789.86 283.435 790.327L282.252 789.97C282.434 789.307 282.786 788.787 283.309 788.409C283.831 788.031 284.52 787.842 285.374 787.842C286.06 787.842 286.648 787.966 287.138 788.213C287.632 788.456 287.987 788.824 288.202 789.319C288.309 789.552 288.377 789.807 288.405 790.082C288.433 790.353 288.447 790.637 288.447 790.936V795.612H287.341V793.799L287.6 793.967C287.315 794.578 286.916 795.04 286.403 795.353C285.894 795.666 285.273 795.822 284.541 795.822ZM284.73 794.779C285.178 794.779 285.565 794.7 285.892 794.541C286.223 794.378 286.489 794.165 286.69 793.904C286.89 793.638 287.021 793.349 287.082 793.036C287.152 792.803 287.189 792.544 287.194 792.259C287.203 791.97 287.208 791.748 287.208 791.594L287.642 791.783C287.236 791.839 286.837 791.893 286.445 791.944C286.053 791.995 285.682 792.051 285.332 792.112C284.982 792.168 284.667 792.236 284.387 792.315C284.181 792.38 283.988 792.464 283.806 792.567C283.628 792.67 283.484 792.803 283.372 792.966C283.264 793.125 283.211 793.323 283.211 793.561C283.211 793.766 283.262 793.962 283.365 794.149C283.472 794.336 283.635 794.487 283.855 794.604C284.079 794.721 284.37 794.779 284.73 794.779ZM290.607 795.612V785.322H291.853V795.612H290.607ZM297.009 795.815C296.108 795.815 295.369 795.619 294.79 795.227C294.216 794.83 293.864 794.277 293.733 793.568L295.007 793.365C295.11 793.776 295.345 794.102 295.714 794.345C296.083 794.583 296.54 794.702 297.086 794.702C297.604 794.702 298.01 794.595 298.304 794.38C298.598 794.165 298.745 793.874 298.745 793.505C298.745 793.29 298.696 793.118 298.598 792.987C298.5 792.852 298.297 792.726 297.989 792.609C297.686 792.492 297.226 792.352 296.61 792.189C295.943 792.012 295.418 791.827 295.035 791.636C294.652 791.445 294.379 791.223 294.216 790.971C294.053 790.719 293.971 790.413 293.971 790.054C293.971 789.611 294.092 789.223 294.335 788.892C294.578 788.556 294.916 788.297 295.35 788.115C295.789 787.933 296.297 787.842 296.876 787.842C297.45 787.842 297.963 787.933 298.416 788.115C298.869 788.297 299.233 788.556 299.508 788.892C299.788 789.223 299.954 789.611 300.005 790.054L298.731 790.285C298.67 789.879 298.474 789.559 298.143 789.326C297.816 789.093 297.394 788.969 296.876 788.955C296.386 788.936 295.987 789.023 295.679 789.214C295.376 789.405 295.224 789.664 295.224 789.991C295.224 790.173 295.28 790.329 295.392 790.46C295.509 790.591 295.721 790.714 296.029 790.831C296.342 790.948 296.794 791.081 297.387 791.23C298.054 791.398 298.579 791.582 298.962 791.783C299.349 791.979 299.625 792.212 299.788 792.483C299.951 792.749 300.033 793.078 300.033 793.47C300.033 794.198 299.765 794.772 299.228 795.192C298.691 795.607 297.952 795.815 297.009 795.815ZM305.053 795.822C304.311 795.822 303.662 795.659 303.107 795.332C302.556 795.001 302.127 794.541 301.819 793.953C301.511 793.36 301.357 792.67 301.357 791.881C301.357 791.055 301.509 790.341 301.812 789.739C302.115 789.132 302.538 788.666 303.079 788.339C303.625 788.008 304.264 787.842 304.997 787.842C305.758 787.842 306.404 788.017 306.936 788.367C307.473 788.717 307.874 789.216 308.14 789.865C308.411 790.514 308.527 791.286 308.49 792.182H307.23V791.734C307.216 790.805 307.027 790.112 306.663 789.655C306.299 789.193 305.758 788.962 305.039 788.962C304.269 788.962 303.683 789.209 303.282 789.704C302.881 790.199 302.68 790.908 302.68 791.832C302.68 792.723 302.881 793.414 303.282 793.904C303.683 794.394 304.255 794.639 304.997 794.639C305.496 794.639 305.93 794.525 306.299 794.296C306.668 794.067 306.957 793.738 307.167 793.309L308.364 793.722C308.07 794.389 307.627 794.907 307.034 795.276C306.446 795.64 305.786 795.822 305.053 795.822ZM302.26 792.182V791.181H307.846V792.182H302.26ZM312.261 795.822C311.696 795.822 311.222 795.719 310.84 795.514C310.462 795.304 310.175 795.029 309.979 794.688C309.787 794.347 309.692 793.974 309.692 793.568C309.692 793.171 309.766 792.828 309.916 792.539C310.07 792.245 310.284 792.002 310.56 791.811C310.835 791.615 311.164 791.461 311.547 791.349C311.906 791.251 312.307 791.167 312.751 791.097C313.199 791.022 313.651 790.955 314.109 790.894C314.566 790.833 314.993 790.775 315.39 790.719L314.942 790.978C314.956 790.306 314.82 789.809 314.536 789.487C314.256 789.165 313.77 789.004 313.08 789.004C312.622 789.004 312.221 789.109 311.876 789.319C311.535 789.524 311.295 789.86 311.155 790.327L309.972 789.97C310.154 789.307 310.506 788.787 311.029 788.409C311.551 788.031 312.24 787.842 313.094 787.842C313.78 787.842 314.368 787.966 314.858 788.213C315.352 788.456 315.707 788.824 315.922 789.319C316.029 789.552 316.097 789.807 316.125 790.082C316.153 790.353 316.167 790.637 316.167 790.936V795.612H315.061V793.799L315.32 793.967C315.035 794.578 314.636 795.04 314.123 795.353C313.614 795.666 312.993 795.822 312.261 795.822ZM312.45 794.779C312.898 794.779 313.285 794.7 313.612 794.541C313.943 794.378 314.209 794.165 314.41 793.904C314.61 793.638 314.741 793.349 314.802 793.036C314.872 792.803 314.909 792.544 314.914 792.259C314.923 791.97 314.928 791.748 314.928 791.594L315.362 791.783C314.956 791.839 314.557 791.893 314.165 791.944C313.773 791.995 313.402 792.051 313.052 792.112C312.702 792.168 312.387 792.236 312.107 792.315C311.901 792.38 311.708 792.464 311.526 792.567C311.348 792.67 311.204 792.803 311.092 792.966C310.984 793.125 310.931 793.323 310.931 793.561C310.931 793.766 310.982 793.962 311.085 794.149C311.192 794.336 311.355 794.487 311.575 794.604C311.799 794.721 312.09 794.779 312.45 794.779ZM327.224 795.612L327.231 790.775C327.231 790.21 327.079 789.769 326.776 789.452C326.477 789.13 326.087 788.969 325.607 788.969C325.327 788.969 325.061 789.034 324.809 789.165C324.557 789.291 324.351 789.492 324.193 789.767C324.034 790.038 323.955 790.385 323.955 790.81L323.297 790.544C323.287 790.007 323.397 789.538 323.626 789.137C323.859 788.731 324.176 788.416 324.578 788.192C324.979 787.968 325.432 787.856 325.936 787.856C326.724 787.856 327.345 788.096 327.798 788.577C328.25 789.053 328.477 789.695 328.477 790.502L328.47 795.612H327.224ZM318.18 795.612V788.052H319.293V790.075H319.433V795.612H318.18ZM322.709 795.612L322.716 790.824C322.716 790.245 322.566 789.793 322.268 789.466C321.969 789.135 321.572 788.969 321.078 788.969C320.588 788.969 320.191 789.137 319.888 789.473C319.584 789.809 319.433 790.255 319.433 790.81L318.775 790.418C318.775 789.928 318.891 789.489 319.125 789.102C319.358 788.715 319.675 788.411 320.077 788.192C320.478 787.968 320.933 787.856 321.442 787.856C321.95 787.856 322.394 787.963 322.772 788.178C323.15 788.393 323.441 788.701 323.647 789.102C323.852 789.499 323.955 789.972 323.955 790.523L323.948 795.612H322.709ZM338.886 795.612V791.825C338.886 791.466 338.853 791.12 338.788 790.789C338.727 790.458 338.617 790.161 338.459 789.9C338.305 789.634 338.095 789.424 337.829 789.27C337.567 789.116 337.236 789.039 336.835 789.039C336.522 789.039 336.237 789.093 335.981 789.2C335.729 789.303 335.512 789.461 335.33 789.676C335.148 789.891 335.005 790.161 334.903 790.488C334.805 790.81 334.756 791.19 334.756 791.629L333.937 791.377C333.937 790.644 334.067 790.017 334.329 789.494C334.595 788.967 334.966 788.563 335.442 788.283C335.922 787.998 336.487 787.856 337.136 787.856C337.626 787.856 338.043 787.933 338.389 788.087C338.734 788.241 339.021 788.446 339.25 788.703C339.478 788.955 339.658 789.24 339.789 789.557C339.919 789.87 340.01 790.189 340.062 790.516C340.118 790.838 340.146 791.144 340.146 791.433V795.612H338.886ZM333.496 795.612V785.532H334.616V791.097H334.756V795.612H333.496ZM345.442 795.822C344.7 795.822 344.051 795.659 343.496 795.332C342.945 795.001 342.516 794.541 342.208 793.953C341.9 793.36 341.746 792.67 341.746 791.881C341.746 791.055 341.897 790.341 342.201 789.739C342.504 789.132 342.926 788.666 343.468 788.339C344.014 788.008 344.653 787.842 345.386 787.842C346.146 787.842 346.793 788.017 347.325 788.367C347.861 788.717 348.263 789.216 348.529 789.865C348.799 790.514 348.916 791.286 348.879 792.182H347.619V791.734C347.605 790.805 347.416 790.112 347.052 789.655C346.688 789.193 346.146 788.962 345.428 788.962C344.658 788.962 344.072 789.209 343.671 789.704C343.269 790.199 343.069 790.908 343.069 791.832C343.069 792.723 343.269 793.414 343.671 793.904C344.072 794.394 344.644 794.639 345.386 794.639C345.885 794.639 346.319 794.525 346.688 794.296C347.056 794.067 347.346 793.738 347.556 793.309L348.753 793.722C348.459 794.389 348.015 794.907 347.423 795.276C346.835 795.64 346.174 795.822 345.442 795.822ZM342.649 792.182V791.181H348.235V792.182H342.649ZM350.777 795.612V785.322H352.023V795.612H350.777ZM357.795 795.822C357.086 795.822 356.489 795.647 356.003 795.297C355.518 794.942 355.149 794.464 354.897 793.862C354.65 793.255 354.526 792.576 354.526 791.825C354.526 791.064 354.65 790.383 354.897 789.781C355.149 789.179 355.518 788.705 356.003 788.36C356.493 788.015 357.093 787.842 357.802 787.842C358.502 787.842 359.104 788.017 359.608 788.367C360.117 788.712 360.507 789.186 360.777 789.788C361.048 790.39 361.183 791.069 361.183 791.825C361.183 792.581 361.048 793.26 360.777 793.862C360.507 794.464 360.117 794.942 359.608 795.297C359.104 795.647 358.5 795.822 357.795 795.822ZM354.316 798.972V788.052H355.429V793.617H355.569V798.972H354.316ZM357.641 794.681C358.141 794.681 358.554 794.555 358.88 794.303C359.207 794.051 359.452 793.71 359.615 793.281C359.779 792.847 359.86 792.362 359.86 791.825C359.86 791.293 359.779 790.812 359.615 790.383C359.457 789.954 359.209 789.613 358.873 789.361C358.542 789.109 358.12 788.983 357.606 788.983C357.116 788.983 356.71 789.104 356.388 789.347C356.066 789.585 355.826 789.919 355.667 790.348C355.509 790.773 355.429 791.265 355.429 791.825C355.429 792.376 355.506 792.868 355.66 793.302C355.819 793.731 356.062 794.07 356.388 794.317C356.715 794.56 357.133 794.681 357.641 794.681ZM366.971 798.972L368.434 794.996L368.455 796.172L365.151 788.052H366.46L369.05 794.583H368.602L371.031 788.052H372.298L368.182 798.972H366.971ZM376.6 795.822C375.849 795.822 375.2 795.652 374.654 795.311C374.113 794.97 373.695 794.499 373.401 793.897C373.107 793.295 372.96 792.604 372.96 791.825C372.96 791.032 373.11 790.336 373.408 789.739C373.707 789.142 374.129 788.677 374.675 788.346C375.221 788.01 375.863 787.842 376.6 787.842C377.356 787.842 378.007 788.012 378.553 788.353C379.099 788.689 379.517 789.158 379.806 789.76C380.1 790.357 380.247 791.046 380.247 791.825C380.247 792.614 380.1 793.309 379.806 793.911C379.512 794.508 379.092 794.977 378.546 795.318C378 795.654 377.352 795.822 376.6 795.822ZM376.6 794.639C377.384 794.639 377.968 794.378 378.35 793.855C378.733 793.332 378.924 792.656 378.924 791.825C378.924 790.971 378.731 790.292 378.343 789.788C377.956 789.279 377.375 789.025 376.6 789.025C376.073 789.025 375.639 789.144 375.298 789.382C374.958 789.62 374.703 789.949 374.535 790.369C374.367 790.789 374.283 791.274 374.283 791.825C374.283 792.674 374.479 793.356 374.871 793.869C375.263 794.382 375.84 794.639 376.6 794.639ZM384.859 795.808C384.373 795.808 383.956 795.731 383.606 795.577C383.26 795.423 382.973 795.218 382.745 794.961C382.516 794.704 382.336 794.42 382.206 794.107C382.075 793.794 381.982 793.475 381.926 793.148C381.874 792.821 381.849 792.516 381.849 792.231V788.052H383.109V791.839C383.109 792.194 383.141 792.537 383.207 792.868C383.272 793.199 383.382 793.498 383.536 793.764C383.694 794.03 383.904 794.24 384.166 794.394C384.432 794.548 384.763 794.625 385.16 794.625C385.472 794.625 385.757 794.571 386.014 794.464C386.27 794.357 386.49 794.198 386.672 793.988C386.854 793.773 386.994 793.503 387.092 793.176C387.19 792.849 387.239 792.469 387.239 792.035L388.058 792.287C388.058 793.015 387.925 793.643 387.659 794.17C387.397 794.697 387.026 795.103 386.546 795.388C386.07 795.668 385.507 795.808 384.859 795.808ZM387.379 795.612V793.589H387.239V788.052H388.492V795.612H387.379ZM72.9642 816.612V815.24H74.3362V816.612H72.9642ZM76.9376 816.612V815.24H78.3096V816.612H76.9376ZM80.911 816.612V815.24H82.283V816.612H80.911ZM84.8845 816.612V815.24H86.2565V816.612H84.8845ZM88.8579 816.612V815.24H90.2299V816.612H88.8579ZM92.8313 816.612V815.24H94.2034V816.612H92.8313ZM96.8048 816.612V815.24H98.1768V816.612H96.8048ZM100.778 816.612V815.24H102.15V816.612H100.778ZM104.752 816.612V815.24H106.124V816.612H104.752ZM108.725 816.612V815.24H110.097V816.612H108.725ZM112.699 816.612V815.24H114.071V816.612H112.699ZM116.672 816.612V815.24H118.044V816.612H116.672ZM120.645 816.612V815.24H122.017V816.612H120.645ZM124.619 816.612V815.24H125.991V816.612H124.619ZM128.592 816.612V815.24H129.964V816.612H128.592ZM132.566 816.612V815.24H133.938V816.612H132.566ZM136.539 816.612V815.24H137.911V816.612H136.539ZM140.513 816.612V815.24H141.885V816.612H140.513ZM144.486 816.612V815.24H145.858V816.612H144.486ZM148.459 816.612V815.24H149.831V816.612H148.459ZM152.433 816.612V815.24H153.805V816.612H152.433ZM156.406 816.612V815.24H157.778V816.612H156.406ZM160.38 816.612V815.24H161.752V816.612H160.38ZM164.353 816.612V815.24H165.725V816.612H164.353ZM168.327 816.612V815.24H169.699V816.612H168.327ZM172.3 816.612V815.24H173.672V816.612H172.3ZM176.274 816.612V815.24H177.646V816.612H176.274ZM180.247 816.612V815.24H181.619V816.612H180.247ZM184.22 816.612V815.24H185.592V816.612H184.22ZM188.194 816.612V815.24H189.566V816.612H188.194ZM192.167 816.612V815.24H193.539V816.612H192.167ZM196.141 816.612V815.24H197.513V816.612H196.141ZM200.114 816.612V815.24H201.486V816.612H200.114ZM204.088 816.612V815.24H205.46V816.612H204.088ZM208.061 816.612V815.24H209.433V816.612H208.061ZM212.034 816.612V815.24H213.406V816.612H212.034ZM216.008 816.612V815.24H217.38V816.612H216.008ZM219.981 816.612V815.24H221.353V816.612H219.981ZM223.955 816.612V815.24H225.327V816.612H223.955ZM227.928 816.612V815.24H229.3V816.612H227.928ZM231.902 816.612V815.24H233.274V816.612H231.902ZM235.875 816.612V815.24H237.247V816.612H235.875ZM239.849 816.612V815.24H241.221V816.612H239.849ZM243.822 816.612V815.24H245.194V816.612H243.822ZM247.795 816.612V815.24H249.167V816.612H247.795ZM251.769 816.612V815.24H253.141V816.612H251.769ZM255.742 816.612V815.24H257.114V816.612H255.742ZM259.716 816.612V815.24H261.088V816.612H259.716ZM263.689 816.612V815.24H265.061V816.612H263.689ZM267.663 816.612V815.24H269.035V816.612H267.663ZM271.636 816.612V815.24H273.008V816.612H271.636ZM275.609 816.612V815.24H276.981V816.612H275.609ZM279.583 816.612V815.24H280.955V816.612H279.583ZM283.556 816.612V815.24H284.928V816.612H283.556ZM287.53 816.612V815.24H288.902V816.612H287.53ZM291.503 816.612V815.24H292.875V816.612H291.503ZM295.477 816.612V815.24H296.849V816.612H295.477ZM299.45 816.612V815.24H300.822V816.612H299.45ZM303.424 816.612V815.24H304.796V816.612H303.424ZM307.397 816.612V815.24H308.769V816.612H307.397ZM311.37 816.612V815.24H312.742V816.612H311.37ZM315.344 816.612V815.24H316.716V816.612H315.344ZM319.317 816.612V815.24H320.689V816.612H319.317ZM323.291 816.612V815.24H324.663V816.612H323.291ZM327.264 816.612V815.24H328.636V816.612H327.264ZM331.238 816.612V815.24H332.61V816.612H331.238ZM335.211 816.612V815.24H336.583V816.612H335.211ZM339.184 816.612V815.24H340.556V816.612H339.184ZM343.158 816.612V815.24H344.53V816.612H343.158ZM347.131 816.612V815.24H348.503V816.612H347.131ZM351.105 816.612V815.24H352.477V816.612H351.105ZM355.078 816.612V815.24H356.45V816.612H355.078ZM359.052 816.612V815.24H360.424V816.612H359.052ZM363.025 816.612V815.24H364.397V816.612H363.025ZM366.999 816.612V815.24H368.371V816.612H366.999ZM370.972 816.612V815.24H372.344V816.612H370.972ZM374.945 816.612V815.24H376.317V816.612H374.945ZM378.919 816.612V815.24H380.291V816.612H378.919ZM382.892 816.612V815.24H384.264V816.612H382.892ZM386.866 816.612V815.24H388.238V816.612H386.866ZM390.839 816.612V815.24H392.211V816.612H390.839ZM394.813 816.612V815.24H396.185V816.612H394.813ZM398.786 816.612V815.24H400.158V816.612H398.786ZM402.759 816.612V815.24H404.131V816.612H402.759ZM406.733 816.612V815.24H408.105V816.612H406.733ZM410.706 816.612V815.24H412.078V816.612H410.706ZM414.68 816.612V815.24H416.052V816.612H414.68ZM418.653 816.612V815.24H420.025V816.612H418.653ZM422.627 816.612V815.24H423.999V816.612H422.627ZM426.6 816.612V815.24H427.972V816.612H426.6ZM430.574 816.612V815.24H431.946V816.612H430.574ZM434.547 816.612V815.24H435.919V816.612H434.547ZM438.52 816.612V815.24H439.892V816.612H438.52ZM442.494 816.612V815.24H443.866V816.612H442.494ZM446.467 816.612V815.24H447.839V816.612H446.467ZM450.441 816.612V815.24H451.813V816.612H450.441ZM454.414 816.612V815.24H455.786V816.612H454.414ZM458.388 816.612V815.24H459.76V816.612H458.388ZM462.361 816.612V815.24H463.733V816.612H462.361ZM466.334 816.612V815.24H467.706V816.612H466.334ZM470.308 816.612V815.24H471.68V816.612H470.308ZM474.281 816.612V815.24H475.653V816.612H474.281ZM478.255 816.612V815.24H479.627V816.612H478.255ZM482.228 816.612V815.24H483.6V816.612H482.228ZM486.202 816.612V815.24H487.574V816.612H486.202ZM490.175 816.612V815.24H491.547V816.612H490.175ZM494.149 816.612V815.24H495.521V816.612H494.149ZM498.122 816.612V815.24H499.494V816.612H498.122ZM502.095 816.612V815.24H503.467V816.612H502.095ZM506.069 816.612V815.24H507.441V816.612H506.069ZM510.042 816.612V815.24H511.414V816.612H510.042ZM514.016 816.612V815.24H515.388V816.612H514.016ZM517.989 816.612V815.24H519.361V816.612H517.989ZM521.963 816.612V815.24H523.335V816.612H521.963ZM525.936 816.612V815.24H527.308V816.612H525.936ZM529.909 816.612V815.24H531.281V816.612H529.909ZM533.883 816.612V815.24H535.255V816.612H533.883ZM537.856 816.612V815.24H539.228V816.612H537.856ZM541.83 816.612V815.24H543.202V816.612H541.83ZM545.803 816.612V815.24H547.175V816.612H545.803ZM549.777 816.612V815.24H551.149V816.612H549.777ZM553.75 816.612V815.24H555.122V816.612H553.75ZM557.724 816.612V815.24H559.096V816.612H557.724ZM561.697 816.612V815.24H563.069V816.612H561.697ZM565.67 816.612V815.24H567.042V816.612H565.67ZM82.7901 837.612V836.24H84.1621V837.612H82.7901ZM86.7636 837.612V836.24H88.1356V837.612H86.7636ZM90.737 837.612V836.24H92.109V837.612H90.737ZM94.7104 837.612V836.24H96.0824V837.612H94.7104ZM98.6839 837.612V836.24H100.056V837.612H98.6839ZM102.657 837.612V836.24H104.029V837.612H102.657ZM106.631 837.612V836.24H108.003V837.612H106.631ZM110.604 837.612V836.24H111.976V837.612H110.604ZM114.578 837.612V836.24H115.95V837.612H114.578ZM118.551 837.612V836.24H119.923V837.612H118.551ZM122.525 837.612V836.24H123.897V837.612H122.525ZM126.498 837.612V836.24H127.87V837.612H126.498ZM130.471 837.612V836.24H131.843V837.612H130.471ZM134.445 837.612V836.24H135.817V837.612H134.445ZM138.418 837.612V836.24H139.79V837.612H138.418ZM142.392 837.612V836.24H143.764V837.612H142.392ZM146.365 837.612V836.24H147.737V837.612H146.365ZM150.339 837.612V836.24H151.711V837.612H150.339ZM154.312 837.612V836.24H155.684V837.612H154.312ZM158.285 837.612V836.24H159.657V837.612H158.285ZM162.259 837.612V836.24H163.631V837.612H162.259ZM166.232 837.612V836.24H167.604V837.612H166.232ZM170.206 837.612V836.24H171.578V837.612H170.206ZM174.179 837.612V836.24H175.551V837.612H174.179ZM178.153 837.612V836.24H179.525V837.612H178.153ZM182.126 837.612V836.24H183.498V837.612H182.126ZM186.1 837.612V836.24H187.472V837.612H186.1ZM190.073 837.612V836.24H191.445V837.612H190.073ZM194.046 837.612V836.24H195.418V837.612H194.046ZM198.02 837.612V836.24H199.392V837.612H198.02ZM201.993 837.612V836.24H203.365V837.612H201.993ZM205.967 837.612V836.24H207.339V837.612H205.967ZM209.94 837.612V836.24H211.312V837.612H209.94ZM213.914 837.612V836.24H215.286V837.612H213.914ZM217.887 837.612V836.24H219.259V837.612H217.887ZM221.86 837.612V836.24H223.232V837.612H221.86ZM225.834 837.612V836.24H227.206V837.612H225.834ZM229.807 837.612V836.24H231.179V837.612H229.807ZM233.781 837.612V836.24H235.153V837.612H233.781ZM237.754 837.612V836.24H239.126V837.612H237.754ZM241.728 837.612V836.24H243.1V837.612H241.728ZM245.701 837.612V836.24H247.073V837.612H245.701ZM249.675 837.612V836.24H251.047V837.612H249.675ZM253.648 837.612V836.24H255.02V837.612H253.648ZM257.621 837.612V836.24H258.993V837.612H257.621ZM261.595 837.612V836.24H262.967V837.612H261.595ZM265.568 837.612V836.24H266.94V837.612H265.568ZM269.542 837.612V836.24H270.914V837.612H269.542ZM273.515 837.612V836.24H274.887V837.612H273.515ZM277.489 837.612V836.24H278.861V837.612H277.489ZM281.462 837.612V836.24H282.834V837.612H281.462ZM285.435 837.612V836.24H286.807V837.612H285.435ZM289.409 837.612V836.24H290.781V837.612H289.409ZM293.382 837.612V836.24H294.754V837.612H293.382ZM297.356 837.612V836.24H298.728V837.612H297.356ZM301.329 837.612V836.24H302.701V837.612H301.329ZM305.303 837.612V836.24H306.675V837.612H305.303ZM309.276 837.612V836.24H310.648V837.612H309.276ZM313.25 837.612V836.24H314.622V837.612H313.25ZM317.223 837.612V836.24H318.595V837.612H317.223ZM321.196 837.612V836.24H322.568V837.612H321.196ZM325.17 837.612V836.24H326.542V837.612H325.17ZM329.143 837.612V836.24H330.515V837.612H329.143ZM333.117 837.612V836.24H334.489V837.612H333.117ZM337.09 837.612V836.24H338.462V837.612H337.09ZM341.064 837.612V836.24H342.436V837.612H341.064ZM345.037 837.612V836.24H346.409V837.612H345.037ZM349.01 837.612V836.24H350.382V837.612H349.01ZM352.984 837.612V836.24H354.356V837.612H352.984ZM356.957 837.612V836.24H358.329V837.612H356.957ZM360.931 837.612V836.24H362.303V837.612H360.931ZM364.904 837.612V836.24H366.276V837.612H364.904ZM368.878 837.612V836.24H370.25V837.612H368.878ZM372.851 837.612V836.24H374.223V837.612H372.851ZM376.824 837.612V836.24H378.196V837.612H376.824ZM380.798 837.612V836.24H382.17V837.612H380.798ZM384.771 837.612V836.24H386.143V837.612H384.771ZM388.745 837.612V836.24H390.117V837.612H388.745ZM392.718 837.612V836.24H394.09V837.612H392.718ZM396.692 837.612V836.24H398.064V837.612H396.692ZM400.665 837.612V836.24H402.037V837.612H400.665ZM404.639 837.612V836.24H406.011V837.612H404.639ZM408.612 837.612V836.24H409.984V837.612H408.612ZM412.585 837.612V836.24H413.957V837.612H412.585ZM416.559 837.612V836.24H417.931V837.612H416.559ZM420.532 837.612V836.24H421.904V837.612H420.532ZM424.506 837.612V836.24H425.878V837.612H424.506ZM428.479 837.612V836.24H429.851V837.612H428.479ZM432.453 837.612V836.24H433.825V837.612H432.453ZM436.426 837.612V836.24H437.798V837.612H436.426ZM440.399 837.612V836.24H441.771V837.612H440.399ZM444.373 837.612V836.24H445.745V837.612H444.373ZM448.346 837.612V836.24H449.718V837.612H448.346ZM452.32 837.612V836.24H453.692V837.612H452.32ZM456.293 837.612V836.24H457.665V837.612H456.293ZM460.267 837.612V836.24H461.639V837.612H460.267ZM464.24 837.612V836.24H465.612V837.612H464.24ZM468.214 837.612V836.24H469.586V837.612H468.214ZM472.187 837.612V836.24H473.559V837.612H472.187ZM476.16 837.612V836.24H477.532V837.612H476.16ZM480.134 837.612V836.24H481.506V837.612H480.134ZM484.107 837.612V836.24H485.479V837.612H484.107ZM488.081 837.612V836.24H489.453V837.612H488.081ZM492.054 837.612V836.24H493.426V837.612H492.054ZM496.028 837.612V836.24H497.4V837.612H496.028ZM500.001 837.612V836.24H501.373V837.612H500.001ZM508.902 837.822C508.338 837.822 507.864 837.719 507.481 837.514C507.103 837.304 506.816 837.029 506.62 836.688C506.429 836.347 506.333 835.974 506.333 835.568C506.333 835.171 506.408 834.828 506.557 834.539C506.711 834.245 506.926 834.002 507.201 833.811C507.477 833.615 507.806 833.461 508.188 833.349C508.548 833.251 508.949 833.167 509.392 833.097C509.84 833.022 510.293 832.955 510.75 832.894C511.208 832.833 511.635 832.775 512.031 832.719L511.583 832.978C511.597 832.306 511.462 831.809 511.177 831.487C510.897 831.165 510.412 831.004 509.721 831.004C509.264 831.004 508.863 831.109 508.517 831.319C508.177 831.524 507.936 831.86 507.796 832.327L506.613 831.97C506.795 831.307 507.148 830.787 507.67 830.409C508.193 830.031 508.881 829.842 509.735 829.842C510.421 829.842 511.009 829.966 511.499 830.213C511.994 830.456 512.349 830.824 512.563 831.319C512.671 831.552 512.738 831.807 512.766 832.082C512.794 832.353 512.808 832.637 512.808 832.936V837.612H511.702V835.799L511.961 835.967C511.677 836.578 511.278 837.04 510.764 837.353C510.256 837.666 509.635 837.822 508.902 837.822ZM509.091 836.779C509.539 836.779 509.927 836.7 510.253 836.541C510.585 836.378 510.851 836.165 511.051 835.904C511.252 835.638 511.383 835.349 511.443 835.036C511.513 834.803 511.551 834.544 511.555 834.259C511.565 833.97 511.569 833.748 511.569 833.594L512.003 833.783C511.597 833.839 511.198 833.893 510.806 833.944C510.414 833.995 510.043 834.051 509.693 834.112C509.343 834.168 509.028 834.236 508.748 834.315C508.543 834.38 508.349 834.464 508.167 834.567C507.99 834.67 507.845 834.803 507.733 834.966C507.626 835.125 507.572 835.323 507.572 835.561C507.572 835.766 507.624 835.962 507.726 836.149C507.834 836.336 507.997 836.487 508.216 836.604C508.44 836.721 508.732 836.779 509.091 836.779ZM517.971 837.612V827.322H519.217V837.612H517.971ZM521.657 828.715V827.427H522.903V828.715H521.657ZM521.657 837.612V830.052H522.903V837.612H521.657ZM525.344 837.612V827.322H526.59V837.612H525.344ZM536.114 837.612C535.666 837.701 535.222 837.736 534.784 837.717C534.35 837.703 533.962 837.617 533.622 837.458C533.281 837.295 533.022 837.043 532.845 836.702C532.695 836.403 532.614 836.102 532.6 835.799C532.59 835.491 532.586 835.143 532.586 834.756V827.952H533.832V834.7C533.832 835.008 533.834 835.272 533.839 835.491C533.848 835.71 533.897 835.899 533.986 836.058C534.154 836.357 534.42 836.532 534.784 836.583C535.152 836.634 535.596 836.62 536.114 836.541V837.612ZM531.053 831.081V830.052H536.114V831.081H531.053ZM540.81 837.822C540.068 837.822 539.419 837.659 538.864 837.332C538.313 837.001 537.884 836.541 537.576 835.953C537.268 835.36 537.114 834.67 537.114 833.881C537.114 833.055 537.266 832.341 537.569 831.739C537.872 831.132 538.295 830.666 538.836 830.339C539.382 830.008 540.021 829.842 540.754 829.842C541.515 829.842 542.161 830.017 542.693 830.367C543.23 830.717 543.631 831.216 543.897 831.865C544.168 832.514 544.284 833.286 544.247 834.182H542.987V833.734C542.973 832.805 542.784 832.112 542.42 831.655C542.056 831.193 541.515 830.962 540.796 830.962C540.026 830.962 539.44 831.209 539.039 831.704C538.638 832.199 538.437 832.908 538.437 833.832C538.437 834.723 538.638 835.414 539.039 835.904C539.44 836.394 540.012 836.639 540.754 836.639C541.253 836.639 541.687 836.525 542.056 836.296C542.425 836.067 542.714 835.738 542.924 835.309L544.121 835.722C543.827 836.389 543.384 836.907 542.791 837.276C542.203 837.64 541.543 837.822 540.81 837.822ZM538.017 834.182V833.181H543.603V834.182H538.017ZM544.892 837.612L547.783 833.79L544.955 830.052H546.439L548.511 832.824L550.562 830.052H552.046L549.218 833.79L552.116 837.612H550.625L548.511 834.756L546.383 837.612H544.892ZM557.659 837.612C557.211 837.701 556.768 837.736 556.329 837.717C555.895 837.703 555.508 837.617 555.167 837.458C554.826 837.295 554.567 837.043 554.39 836.702C554.241 836.403 554.159 836.102 554.145 835.799C554.136 835.491 554.131 835.143 554.131 834.756V827.952H555.377V834.7C555.377 835.008 555.379 835.272 555.384 835.491C555.393 835.71 555.442 835.899 555.531 836.058C555.699 836.357 555.965 836.532 556.329 836.583C556.698 836.634 557.141 836.62 557.659 836.541V837.612ZM552.598 831.081V830.052H557.659V831.081H552.598ZM309.167 858.612V854.825C309.167 854.466 309.134 854.12 309.069 853.789C309.008 853.458 308.899 853.161 308.74 852.9C308.586 852.634 308.376 852.424 308.11 852.27C307.849 852.116 307.517 852.039 307.116 852.039C306.803 852.039 306.519 852.093 306.262 852.2C306.01 852.303 305.793 852.461 305.611 852.676C305.429 852.891 305.287 853.161 305.184 853.488C305.086 853.81 305.037 854.19 305.037 854.629L304.218 854.377C304.218 853.644 304.349 853.017 304.61 852.494C304.876 851.967 305.247 851.563 305.723 851.283C306.204 850.998 306.768 850.856 307.417 850.856C307.907 850.856 308.325 850.933 308.67 851.087C309.015 851.241 309.302 851.446 309.531 851.703C309.76 851.955 309.939 852.24 310.07 852.557C310.201 852.87 310.292 853.189 310.343 853.516C310.399 853.838 310.427 854.144 310.427 854.433V858.612H309.167ZM303.777 858.612V848.532H304.897V854.097H305.037V858.612H303.777ZM315.723 858.822C314.981 858.822 314.332 858.659 313.777 858.332C313.226 858.001 312.797 857.541 312.489 856.953C312.181 856.36 312.027 855.67 312.027 854.881C312.027 854.055 312.179 853.341 312.482 852.739C312.785 852.132 313.208 851.666 313.749 851.339C314.295 851.008 314.934 850.842 315.667 850.842C316.428 850.842 317.074 851.017 317.606 851.367C318.143 851.717 318.544 852.216 318.81 852.865C319.081 853.514 319.197 854.286 319.16 855.182H317.9V854.734C317.886 853.805 317.697 853.112 317.333 852.655C316.969 852.193 316.428 851.962 315.709 851.962C314.939 851.962 314.353 852.209 313.952 852.704C313.551 853.199 313.35 853.908 313.35 854.832C313.35 855.723 313.551 856.414 313.952 856.904C314.353 857.394 314.925 857.639 315.667 857.639C316.166 857.639 316.6 857.525 316.969 857.296C317.338 857.067 317.627 856.738 317.837 856.309L319.034 856.722C318.74 857.389 318.297 857.907 317.704 858.276C317.116 858.64 316.456 858.822 315.723 858.822ZM312.93 855.182V854.181H318.516V855.182H312.93ZM320.918 858.612V851.052H322.031V852.879L321.849 852.641C321.938 852.408 322.052 852.193 322.192 851.997C322.337 851.801 322.498 851.64 322.675 851.514C322.871 851.355 323.093 851.234 323.34 851.15C323.588 851.066 323.84 851.017 324.096 851.003C324.353 850.984 324.593 851.001 324.817 851.052V852.221C324.556 852.151 324.269 852.132 323.956 852.165C323.644 852.198 323.354 852.312 323.088 852.508C322.846 852.681 322.657 852.891 322.521 853.138C322.391 853.385 322.3 853.654 322.248 853.943C322.197 854.228 322.171 854.519 322.171 854.818V858.612H320.918ZM329.48 858.822C328.738 858.822 328.09 858.659 327.534 858.332C326.984 858.001 326.554 857.541 326.246 856.953C325.938 856.36 325.784 855.67 325.784 854.881C325.784 854.055 325.936 853.341 326.239 852.739C326.543 852.132 326.965 851.666 327.506 851.339C328.052 851.008 328.692 850.842 329.424 850.842C330.185 850.842 330.831 851.017 331.363 851.367C331.9 851.717 332.301 852.216 332.567 852.865C332.838 853.514 332.955 854.286 332.917 855.182H331.657V854.734C331.643 853.805 331.454 853.112 331.09 852.655C330.726 852.193 330.185 851.962 329.466 851.962C328.696 851.962 328.111 852.209 327.709 852.704C327.308 853.199 327.107 853.908 327.107 854.832C327.107 855.723 327.308 856.414 327.709 856.904C328.111 857.394 328.682 857.639 329.424 857.639C329.924 857.639 330.358 857.525 330.726 857.296C331.095 857.067 331.384 856.738 331.594 856.309L332.791 856.722C332.497 857.389 332.054 857.907 331.461 858.276C330.873 858.64 330.213 858.822 329.48 858.822ZM326.687 855.182V854.181H332.273V855.182H326.687ZM334.626 858.612V857.24H335.998V858.612H334.626Z" fill="white"/>
    <path opacity="0.1" d="M171.624 164.932L167.925 159.841L173.017 156.142C173.657 155.677 173.801 154.768 173.336 154.127C172.87 153.486 171.962 153.342 171.321 153.808L166.229 157.506L162.531 152.415C162.065 151.774 161.157 151.63 160.516 152.096C159.875 152.561 159.731 153.47 160.197 154.11L163.895 159.202L158.804 162.901C158.163 163.366 158.019 164.275 158.484 164.916C158.95 165.556 159.858 165.7 160.499 165.235L165.591 161.536L169.289 166.628C169.755 167.269 170.664 167.413 171.304 166.947C171.955 166.483 172.097 165.584 171.624 164.932Z" fill="white"/>
    <path opacity="0.1" d="M512.62 218.929L508.921 213.838L514.013 210.139C514.654 209.673 514.798 208.765 514.332 208.124C513.867 207.483 512.958 207.339 512.317 207.805L507.226 211.503L503.527 206.412C503.062 205.771 502.153 205.627 501.512 206.092C500.871 206.558 500.727 207.467 501.193 208.107L504.892 213.199L499.8 216.898C499.159 217.363 499.015 218.272 499.481 218.913C499.946 219.553 500.855 219.697 501.495 219.232L506.587 215.533L510.286 220.625C510.751 221.266 511.66 221.41 512.301 220.944C512.951 220.48 513.094 219.581 512.62 218.929Z" fill="white"/>
    <path opacity="0.1" d="M490.009 186.465L488.106 183.845L490.726 181.942C491.056 181.702 491.13 181.234 490.891 180.905C490.651 180.575 490.183 180.501 489.854 180.74L487.233 182.644L485.33 180.024C485.09 179.694 484.623 179.62 484.293 179.859C483.963 180.099 483.889 180.566 484.129 180.896L486.032 183.516L483.412 185.42C483.082 185.659 483.008 186.127 483.247 186.457C483.487 186.787 483.955 186.861 484.284 186.621L486.905 184.718L488.808 187.338C489.048 187.668 489.515 187.742 489.845 187.502C490.18 187.264 490.253 186.801 490.009 186.465Z" fill="white"/>
    <path opacity="0.1" d="M114.77 213.372H171.53V270.132H114.77V213.372Z" stroke="white" stroke-width="2" stroke-miterlimit="10"/>
    <path opacity="0.1" d="M86.3901 184.992H143.15V241.752H86.3901V184.992Z" fill="white"/>
    <path opacity="0.1" d="M527.968 586.444L455.157 649.022C437.875 628.914 440.166 598.604 460.274 581.322C480.382 564.04 510.686 566.336 527.968 586.444Z" fill="white"/>
    <path d="M601.278 18.6119H597V36.1318H601.278V18.6119Z" fill="#0436E7"/>
    <path d="M612.144 18.6119H607.867V36.1318H612.144V18.6119Z" fill="#0436E7"/>
    <path d="M623.011 18.6119H618.733V36.1318H623.011V18.6119Z" fill="#0436E7"/>
    <path d="M601.278 43.5635H597V61.0834H601.278V43.5635Z" fill="#0436E7"/>
    <path d="M612.144 43.5635H607.867V61.0834H612.144V43.5635Z" fill="#0436E7"/>
    <path d="M612.144 68.5071H607.867V86.027H612.144V68.5071Z" fill="#0436E7"/>
    <path d="M623.011 68.5071H618.733V86.027H623.011V68.5071Z" fill="#0436E7"/>
    <path d="M601.278 93.4588H597V110.979H601.278V93.4588Z" fill="#0436E7"/>
    <path d="M623.011 93.4588H618.733V110.979H623.011V93.4588Z" fill="#0436E7"/>
    <path d="M601.278 118.41H597V135.93H601.278V118.41Z" fill="#0436E7"/>
    <path d="M612.144 118.41H607.867V135.93H612.144V118.41Z" fill="#0436E7"/>
    <path d="M601.278 143.362H597V160.882H601.278V143.362Z" fill="#0436E7"/>
    <path d="M612.144 143.362H607.867V160.882H612.144V143.362Z" fill="#0436E7"/>
    <path d="M623.011 143.362H618.733V160.882H623.011V143.362Z" fill="#0436E7"/>
    <path d="M88.8768 889.858C87.1559 889.858 85.7537 888.456 85.7537 886.735C85.7537 885.014 87.1559 883.612 88.8768 883.612C90.5978 883.612 92 885.014 92 886.735C92 888.467 90.5978 889.858 88.8768 889.858ZM92 905.421C92 903.7 90.5978 902.298 88.8768 902.298C87.1559 902.298 85.7537 903.7 85.7537 905.421C85.7537 907.142 87.1559 908.544 88.8768 908.544C90.5978 908.544 92 907.152 92 905.421ZM92 924.107C92 922.386 90.5978 920.983 88.8768 920.983C87.1559 920.983 85.7537 922.386 85.7537 924.107C85.7537 925.828 87.1559 927.23 88.8768 927.23C90.5978 927.24 92 925.838 92 924.107ZM92 942.803C92 941.082 90.5978 939.68 88.8768 939.68C87.1559 939.68 85.7537 941.082 85.7537 942.803C85.7537 944.524 87.1559 945.926 88.8768 945.926C90.5978 945.926 92 944.524 92 942.803ZM92 961.489C92 959.768 90.5978 958.366 88.8768 958.366C87.1559 958.366 85.7537 959.768 85.7537 961.489C85.7537 963.21 87.1559 964.612 88.8768 964.612C90.5978 964.612 92 963.21 92 961.489ZM73.3142 886.735C73.3142 885.014 71.912 883.612 70.1911 883.612C68.4701 883.612 67.0679 885.014 67.0679 886.735C67.0679 888.456 68.4701 889.858 70.1911 889.858C71.912 889.858 73.3142 888.467 73.3142 886.735ZM73.3142 905.421C73.3142 903.7 71.912 902.298 70.1911 902.298C68.4701 902.298 67.0679 903.7 67.0679 905.421C67.0679 907.142 68.4701 908.544 70.1911 908.544C71.912 908.544 73.3142 907.152 73.3142 905.421ZM73.3142 924.107C73.3142 922.386 71.912 920.983 70.1911 920.983C68.4701 920.983 67.0679 922.386 67.0679 924.107C67.0679 925.828 68.4701 927.23 70.1911 927.23C71.912 927.24 73.3142 925.838 73.3142 924.107ZM73.3142 942.803C73.3142 941.082 71.912 939.68 70.1911 939.68C68.4701 939.68 67.0679 941.082 67.0679 942.803C67.0679 944.524 68.4701 945.926 70.1911 945.926C71.912 945.926 73.3142 944.524 73.3142 942.803ZM73.3142 961.489C73.3142 959.768 71.912 958.366 70.1911 958.366C68.4701 958.366 67.0679 959.768 67.0679 961.489C67.0679 963.21 68.4701 964.612 70.1911 964.612C71.912 964.612 73.3142 963.21 73.3142 961.489ZM54.6178 886.735C54.6178 885.014 53.2156 883.612 51.4947 883.612C49.7738 883.612 48.3715 885.014 48.3715 886.735C48.3715 888.456 49.7738 889.858 51.4947 889.858C53.2262 889.858 54.6178 888.467 54.6178 886.735ZM54.6178 905.421C54.6178 903.7 53.2156 902.298 51.4947 902.298C49.7738 902.298 48.3715 903.7 48.3715 905.421C48.3715 907.142 49.7738 908.544 51.4947 908.544C53.2262 908.544 54.6178 907.152 54.6178 905.421ZM54.6178 924.107C54.6178 922.386 53.2156 920.983 51.4947 920.983C49.7738 920.983 48.3715 922.386 48.3715 924.107C48.3715 925.828 49.7738 927.23 51.4947 927.23C53.2262 927.24 54.6178 925.838 54.6178 924.107ZM54.6178 942.803C54.6178 941.082 53.2156 939.68 51.4947 939.68C49.7738 939.68 48.3715 941.082 48.3715 942.803C48.3715 944.524 49.7738 945.926 51.4947 945.926C53.2262 945.926 54.6178 944.524 54.6178 942.803ZM54.6178 961.489C54.6178 959.768 53.2156 958.366 51.4947 958.366C49.7738 958.366 48.3715 959.768 48.3715 961.489C48.3715 963.21 49.7738 964.612 51.4947 964.612C53.2262 964.612 54.6178 963.21 54.6178 961.489ZM35.932 886.735C35.932 885.014 34.5298 883.612 32.8089 883.612C31.088 883.612 29.6858 885.014 29.6858 886.735C29.6858 888.456 31.088 889.858 32.8089 889.858C34.5404 889.858 35.932 888.467 35.932 886.735ZM35.932 905.421C35.932 903.7 34.5298 902.298 32.8089 902.298C31.088 902.298 29.6858 903.7 29.6858 905.421C29.6858 907.142 31.088 908.544 32.8089 908.544C34.5404 908.544 35.932 907.152 35.932 905.421ZM35.932 924.107C35.932 922.386 34.5298 920.983 32.8089 920.983C31.088 920.983 29.6858 922.386 29.6858 924.107C29.6858 925.828 31.088 927.23 32.8089 927.23C34.5404 927.24 35.932 925.838 35.932 924.107ZM35.932 942.803C35.932 941.082 34.5298 939.68 32.8089 939.68C31.088 939.68 29.6858 941.082 29.6858 942.803C29.6858 944.524 31.088 945.926 32.8089 945.926C34.5404 945.926 35.932 944.524 35.932 942.803ZM35.932 961.489C35.932 959.768 34.5298 958.366 32.8089 958.366C31.088 958.366 29.6858 959.768 29.6858 961.489C29.6858 963.21 31.088 964.612 32.8089 964.612C34.5404 964.612 35.932 963.21 35.932 961.489ZM17.2463 886.735C17.2463 885.014 15.8441 883.612 14.1232 883.612C12.4022 883.612 11 885.014 11 886.735C11 888.456 12.4022 889.858 14.1232 889.858C15.8441 889.858 17.2463 888.467 17.2463 886.735ZM17.2463 905.421C17.2463 903.7 15.8441 902.298 14.1232 902.298C12.4022 902.298 11 903.7 11 905.421C11 907.142 12.4022 908.544 14.1232 908.544C15.8441 908.544 17.2463 907.152 17.2463 905.421ZM17.2463 924.107C17.2463 922.386 15.8441 920.983 14.1232 920.983C12.4022 920.983 11 922.386 11 924.107C11 925.828 12.4022 927.23 14.1232 927.23C15.8441 927.23 17.2463 925.838 17.2463 924.107ZM17.2463 942.803C17.2463 941.082 15.8441 939.68 14.1232 939.68C12.4022 939.68 11 941.082 11 942.803C11 944.524 12.4022 945.926 14.1232 945.926C15.8441 945.926 17.2463 944.524 17.2463 942.803ZM17.2463 961.489C17.2463 959.768 15.8441 958.366 14.1232 958.366C12.4022 958.366 11 959.768 11 961.489C11 963.21 12.4022 964.612 14.1232 964.612C15.8441 964.612 17.2463 963.21 17.2463 961.489Z" fill="#0331D6"/>
    <rect x="141" y="228.94" width="333" height="389" rx="16" fill="#D8E3F8"/>
    <g filter="url(#filter0_d_293_7692)">
        <rect x="352" y="271.94" width="194" height="98" fill="#A0AEC0"/>
    </g>
    <g filter="url(#filter1_d_293_7692)">
        <rect x="69" y="484.94" width="231" height="59" rx="12" fill="#718096"/>
    </g>
    <defs>
        <filter id="filter0_d_293_7692" x="297" y="251.94" width="274" height="178" filterUnits="userSpaceOnUse" color-interpolation-filters="sRGB">
            <feFlood flood-opacity="0" result="BackgroundImageFix"/>
            <feColorMatrix in="SourceAlpha" type="matrix" values="0 0 0 0 0 0 0 0 0 0 0 0 0 0 0 0 0 0 127 0" result="hardAlpha"/>
            <feOffset dx="-15" dy="20"/>
            <feGaussianBlur stdDeviation="20"/>
            <feColorMatrix type="matrix" values="0 0 0 0 0.101961 0 0 0 0 0.12549 0 0 0 0 0.172549 0 0 0 0.12 0"/>
            <feBlend mode="normal" in2="BackgroundImageFix" result="effect1_dropShadow_293_7692"/>
            <feBlend mode="normal" in="SourceGraphic" in2="effect1_dropShadow_293_7692" result="shape"/>
        </filter>
        <filter id="filter1_d_293_7692" x="44" y="464.94" width="311" height="139" filterUnits="userSpaceOnUse" color-interpolation-filters="sRGB">
            <feFlood flood-opacity="0" result="BackgroundImageFix"/>
            <feColorMatrix in="SourceAlpha" type="matrix" values="0 0 0 0 0 0 0 0 0 0 0 0 0 0 0 0 0 0 127 0" result="hardAlpha"/>
            <feOffset dx="15" dy="20"/>
            <feGaussianBlur stdDeviation="20"/>
            <feColorMatrix type="matrix" values="0 0 0 0 0.101961 0 0 0 0 0.12549 0 0 0 0 0.172549 0 0 0 0.12 0"/>
            <feBlend mode="normal" in2="BackgroundImageFix" result="effect1_dropShadow_293_7692"/>
            <feBlend mode="normal" in="SourceGraphic" in2="effect1_dropShadow_293_7692" result="shape"/>
        </filter>
    </defs>
</svg>
