<svg width="476" height="156" viewBox="0 0 476 156" fill="none" xmlns="http://www.w3.org/2000/svg">
<g clip-path="url(#clip0_270_10355)">
<rect y="0.111816" width="476" height="155" rx="16" fill="#FEE2E2"/>
<path fill-rule="evenodd" clip-rule="evenodd" d="M238 103.612C252.359 103.612 264 91.9712 264 77.6118C264 63.2524 252.359 51.6118 238 51.6118C223.641 51.6118 212 63.2524 212 77.6118C212 91.9712 223.641 103.612 238 103.612ZM250.048 73.4099C251.317 72.1407 251.317 70.0829 250.048 68.8137C248.779 67.5445 246.721 67.5445 245.452 68.8137L234.75 79.5156L230.548 75.3137C229.279 74.0445 227.221 74.0445 225.952 75.3137C224.683 76.5829 224.683 78.6407 225.952 79.9099L232.452 86.4099C233.721 87.6791 235.779 87.6791 237.048 86.4099L250.048 73.4099Z" fill="#DD3333"/>
<g opacity="0.1">
<path fill-rule="evenodd" clip-rule="evenodd" d="M58 105.299C107.809 105.299 148.188 64.921 148.188 15.1118C148.188 -34.6974 107.809 -75.0757 58 -75.0757C8.19082 -75.0757 -32.1875 -34.6974 -32.1875 15.1118C-32.1875 64.921 8.19082 105.299 58 105.299ZM99.7918 0.536461C104.194 -3.86608 104.194 -11.004 99.7918 -15.4066C95.3893 -19.8091 88.2513 -19.8091 83.8488 -15.4066L46.7266 21.7156L32.1512 7.14029C27.7487 2.73774 20.6107 2.73774 16.2082 7.14029C11.8056 11.5428 11.8056 18.6808 16.2082 23.0833L38.755 45.6302C43.1576 50.0328 50.2955 50.0328 54.6981 45.6302L99.7918 0.536461Z" fill="#DD3333"/>
</g>
<g opacity="0.1">
<path fill-rule="evenodd" clip-rule="evenodd" d="M437 240.299C486.809 240.299 527.188 199.921 527.188 150.112C527.188 100.303 486.809 59.9243 437 59.9243C387.191 59.9243 346.812 100.303 346.812 150.112C346.812 199.921 387.191 240.299 437 240.299ZM478.792 135.536C483.194 131.134 483.194 123.996 478.792 119.593C474.389 115.191 467.251 115.191 462.849 119.593L425.727 156.716L411.151 142.14C406.749 137.738 399.611 137.738 395.208 142.14C390.806 146.543 390.806 153.681 395.208 158.083L417.755 180.63C422.158 185.033 429.296 185.033 433.698 180.63L478.792 135.536Z" fill="#DD3333"/>
</g>
<g opacity="0.1">
<path fill-rule="evenodd" clip-rule="evenodd" d="M349 56.7993C398.809 56.7993 439.188 16.421 439.188 -33.3882C439.188 -83.1974 398.809 -123.576 349 -123.576C299.191 -123.576 258.812 -83.1974 258.812 -33.3882C258.812 16.421 299.191 56.7993 349 56.7993ZM390.792 -47.9635C395.194 -52.3661 395.194 -59.504 390.792 -63.9066C386.389 -68.3091 379.251 -68.3091 374.849 -63.9066L337.727 -26.7844L323.151 -41.3597C318.749 -45.7623 311.611 -45.7623 307.208 -41.3597C302.806 -36.9572 302.806 -29.8192 307.208 -25.4167L329.755 -2.86979C334.158 1.53277 341.296 1.53277 345.698 -2.86979L390.792 -47.9635Z" fill="#DD3333"/>
</g>
<g opacity="0.1">
<path fill-rule="evenodd" clip-rule="evenodd" d="M148.188 315.049C206.971 315.049 254.625 267.396 254.625 208.612C254.625 149.828 206.971 102.174 148.188 102.174C89.4037 102.174 41.75 149.828 41.75 208.612C41.75 267.396 89.4037 315.049 148.188 315.049ZM197.509 191.41C202.705 186.214 202.705 177.79 197.509 172.595C192.314 167.399 183.89 167.399 178.694 172.595L134.883 216.406L117.681 199.204C112.485 194.008 104.061 194.008 98.8656 199.204C93.6698 204.4 93.6698 212.824 98.8656 218.02L125.475 244.629C130.671 249.825 139.095 249.825 144.291 244.629L197.509 191.41Z" fill="#DD3333"/>
</g>
</g>
<defs>
<clipPath id="clip0_270_10355">
<rect y="0.111816" width="476" height="155" rx="16" fill="white"/>
</clipPath>
</defs>
</svg>
