<svg width="476" height="155" viewBox="0 0 476 155" fill="none" xmlns="http://www.w3.org/2000/svg">
<g clip-path="url(#clip0_318_9505)">
<rect x="0.5" width="475" height="155" rx="16" fill="#E7FFF0"/>
<path fill-rule="evenodd" clip-rule="evenodd" d="M238.5 103.5C252.859 103.5 264.5 91.8594 264.5 77.5C264.5 63.1406 252.859 51.5 238.5 51.5C224.141 51.5 212.5 63.1406 212.5 77.5C212.5 91.8594 224.141 103.5 238.5 103.5ZM250.548 73.2981C251.817 72.0289 251.817 69.9711 250.548 68.7019C249.279 67.4327 247.221 67.4327 245.952 68.7019L235.25 79.4038L231.048 75.2019C229.779 73.9327 227.721 73.9327 226.452 75.2019C225.183 76.4711 225.183 78.5289 226.452 79.7981L232.952 86.2981C234.221 87.5673 236.279 87.5673 237.548 86.2981L250.548 73.2981Z" fill="#16A34A"/>
<g opacity="0.1">
<path fill-rule="evenodd" clip-rule="evenodd" d="M58.5 105.188C108.309 105.188 148.688 64.8092 148.688 15C148.688 -34.8092 108.309 -75.1875 58.5 -75.1875C8.69082 -75.1875 -31.6875 -34.8092 -31.6875 15C-31.6875 64.8092 8.69082 105.188 58.5 105.188ZM100.292 0.424644C104.694 -3.9779 104.694 -11.1159 100.292 -15.5184C95.8893 -19.9209 88.7513 -19.9209 84.3488 -15.5184L47.2266 21.6038L32.6512 7.02847C28.2487 2.62592 21.1107 2.62592 16.7082 7.02847C12.3056 11.431 12.3056 18.569 16.7082 22.9715L39.255 45.5184C43.6576 49.921 50.7955 49.921 55.1981 45.5184L100.292 0.424644Z" fill="#16A34A"/>
</g>
<g opacity="0.1">
<path fill-rule="evenodd" clip-rule="evenodd" d="M437.5 240.188C487.309 240.188 527.688 199.809 527.688 150C527.688 100.191 487.309 59.8125 437.5 59.8125C387.691 59.8125 347.312 100.191 347.312 150C347.312 199.809 387.691 240.188 437.5 240.188ZM479.292 135.425C483.694 131.022 483.694 123.884 479.292 119.482C474.889 115.079 467.751 115.079 463.349 119.482L426.227 156.604L411.651 142.028C407.249 137.626 400.111 137.626 395.708 142.028C391.306 146.431 391.306 153.569 395.708 157.972L418.255 180.518C422.658 184.921 429.796 184.921 434.198 180.518L479.292 135.425Z" fill="#16A34A"/>
</g>
<g opacity="0.1">
<path fill-rule="evenodd" clip-rule="evenodd" d="M349.5 56.6875C399.309 56.6875 439.688 16.3092 439.688 -33.5C439.688 -83.3092 399.309 -123.688 349.5 -123.688C299.691 -123.688 259.312 -83.3092 259.312 -33.5C259.312 16.3092 299.691 56.6875 349.5 56.6875ZM391.292 -48.0754C395.694 -52.4779 395.694 -59.6159 391.292 -64.0184C386.889 -68.4209 379.751 -68.4209 375.349 -64.0184L338.227 -26.8962L323.651 -41.4715C319.249 -45.8741 312.111 -45.8741 307.708 -41.4715C303.306 -37.069 303.306 -29.931 307.708 -25.5285L330.255 -2.98161C334.658 1.42095 341.796 1.42095 346.198 -2.98161L391.292 -48.0754Z" fill="#16A34A"/>
</g>
<g opacity="0.1">
<path fill-rule="evenodd" clip-rule="evenodd" d="M148.688 314.938C207.471 314.938 255.125 267.284 255.125 208.5C255.125 149.716 207.471 102.062 148.688 102.062C89.9037 102.062 42.25 149.716 42.25 208.5C42.25 267.284 89.9037 314.938 148.688 314.938ZM198.009 191.298C203.205 186.103 203.205 177.679 198.009 172.483C192.814 167.287 184.39 167.287 179.194 172.483L135.383 216.294L118.181 199.092C112.985 193.896 104.561 193.896 99.3656 199.092C94.1698 204.288 94.1698 212.712 99.3656 217.908L125.975 244.517C131.171 249.713 139.595 249.713 144.791 244.517L198.009 191.298Z" fill="#16A34A"/>
</g>
</g>
<defs>
<clipPath id="clip0_318_9505">
<rect x="0.5" width="475" height="155" rx="16" fill="white"/>
</clipPath>
</defs>
</svg>
